<?xml version="1.0" encoding="utf-8"?>
<!-- Generator: Adobe Illustrator 16.0.0, SVG Export Plug-In . SVG Version: 6.00 Build 0)  -->
<!DOCTYPE svg PUBLIC "-//W3C//DTD SVG 1.1//EN" "http://www.w3.org/Graphics/SVG/1.1/DTD/svg11.dtd">
<svg version="1.1" id="Layer_1" xmlns="http://www.w3.org/2000/svg" xmlns:xlink="http://www.w3.org/1999/xlink" x="0px" y="0px"
	 width="60px" height="60px" viewBox="0 0 60 60" enable-background="new 0 0 60 60" xml:space="preserve">
<path id="Combined-Shape" fill="#FFFFFF" d="M30,60C13.432,60,0,46.568,0,30S13.432,0,30,0s30,13.432,30,30S46.568,60,30,60z
	 M30,58.5c15.74,0,28.5-12.76,28.5-28.5S45.74,1.5,30,1.5S1.5,14.26,1.5,30S14.26,58.5,30,58.5z"/>
<path id="Shape" fill="#FFFFFF" d="M25.327,15h-5.769c-1.274,0-2.308,1.033-2.308,2.308v25.385c0,1.274,1.033,2.308,2.308,2.308
	h5.769c1.275,0,2.308-1.033,2.308-2.308V17.308C27.634,16.033,26.601,15,25.327,15z M40.326,15h-5.769
	c-1.274,0-2.308,1.033-2.308,2.308v25.385c0,1.274,1.033,2.308,2.308,2.308h5.769c1.275,0,2.309-1.033,2.309-2.308V17.308
	C42.635,16.033,41.602,15,40.326,15z"/>
</svg>
