<?xml version="1.0" encoding="utf-8"?>
<!-- Generator: Adobe Illustrator 16.0.0, SVG Export Plug-In . SVG Version: 6.00 Build 0)  -->
<!DOCTYPE svg PUBLIC "-//W3C//DTD SVG 1.1//EN" "http://www.w3.org/Graphics/SVG/1.1/DTD/svg11.dtd">
<svg version="1.1" id="Layer_1" xmlns="http://www.w3.org/2000/svg" xmlns:xlink="http://www.w3.org/1999/xlink" x="0px" y="0px"
	 width="255px" height="255px" viewBox="0 0 255 255" enable-background="new 0 0 255 255" xml:space="preserve">
<path id="Combined-Shape" fill="#FFFFFF" d="M128.5,255C58.083,255,1,197.916,1,127.5C1,57.083,58.083,0,128.5,0
	C198.916,0,256,57.083,256,127.5C256,197.916,198.916,255,128.5,255z M128.5,238c61.027,0,110.5-49.473,110.5-110.5
	S189.527,17,128.5,17S18,66.473,18,127.5S67.473,238,128.5,238z"/>
<path id="Shape" fill="#FFFFFF" d="M135.601,114.808c3.755-6.101,8.438-6.808,16.15-6.808h18.999v14.25L204,96.6L170.75,70v14.25
	h-18.999c-5.952,0-12.573,2.123-17.782,4.2c-9.5,3.779-15.542,10.28-19.587,19.55c-2.174,4.987-2.627,16.447-5.759,22.801
	C103.932,140.3,97.711,146,90,146H52l0,23.75h38c3.577,0,11.622-2.123,16.832-4.201c9.5-3.777,15.787-10.205,22.503-24.863
	C132.194,134.443,133.7,117.896,135.601,114.808z M104.569,116.512c0.022-0.126,0.045-0.252,0.067-0.371
	c0.742-4.186,1.455-8.142,2.775-11.185c2.019-4.631,4.616-8.475,7.556-11.904c-2.479-1.9-5.136-3.407-8.135-4.602
	c-5.21-2.078-10.88-4.2-16.833-4.2H52l0,23.75h38C95.67,107.999,100.524,111.102,104.569,116.512z M150.801,146
	c-6.502,0-10.153-1.247-13.396-5.24c-0.357,1.106-0.735,2.168-1.158,3.096c-3.288,7.169-6.62,12.676-10.339,17.07
	c2.397,1.788,4.988,3.406,8.06,4.623c5.211,2.078,11.83,4.201,17.783,4.201h19V184l33.249-26.6l-33.249-25.65V146H150.801z"/>
</svg>
