<?xml version="1.0" encoding="utf-8"?>
<!-- Generator: Adobe Illustrator 16.0.0, SVG Export Plug-In . SVG Version: 6.00 Build 0)  -->
<!DOCTYPE svg PUBLIC "-//W3C//DTD SVG 1.1//EN" "http://www.w3.org/Graphics/SVG/1.1/DTD/svg11.dtd">
<svg version="1.1" id="Layer_1" xmlns="http://www.w3.org/2000/svg" xmlns:xlink="http://www.w3.org/1999/xlink" x="0px" y="0px"
	 width="28px" height="23px" viewBox="0 0 28 23" enable-background="new 0 0 28 23" xml:space="preserve">
<path id="Shape" fill="#FFFFFF" d="M0.906,9.871l11.398-9.643c0.389-0.27,0.873-0.225,1.237-0.225c1.46,0,1.454,1.31,1.454,1.643
	v7.308l10.313-8.726c0.389-0.27,0.873-0.225,1.238-0.225C28.006,0.003,28,1.313,28,1.646v19.709c0,0.28,0.006,1.643-1.453,1.643
	c-0.365,0-0.85,0.045-1.238-0.225l-10.313-8.726v7.308c0,0.28,0.007,1.643-1.454,1.643c-0.365,0-0.848,0.045-1.237-0.225
	L0.906,13.13c-1.081-0.747-0.894-1.63-0.894-1.63S-0.174,10.618,0.906,9.871z"/>
</svg>
