<?xml version="1.0" encoding="utf-8"?>
<!-- Generator: Adobe Illustrator 16.0.0, SVG Export Plug-In . SVG Version: 6.00 Build 0)  -->
<!DOCTYPE svg PUBLIC "-//W3C//DTD SVG 1.1//EN" "http://www.w3.org/Graphics/SVG/1.1/DTD/svg11.dtd">
<svg version="1.1" id="Layer_1" xmlns="http://www.w3.org/2000/svg" xmlns:xlink="http://www.w3.org/1999/xlink" x="0px" y="0px"
	 width="255px" height="255px" viewBox="0 0 255 255" enable-background="new 0 0 255 255" xml:space="preserve">
<path id="Combined-Shape" fill="#FFFFFF" d="M127.5,255C57.083,255,0,197.916,0,127.5C0,57.083,57.083,0,127.5,0
	C197.916,0,255,57.083,255,127.5C255,197.916,197.916,255,127.5,255z M127.5,238c61.027,0,110.5-49.473,110.5-110.5
	S188.527,17,127.5,17S17,66.473,17,127.5S66.473,238,127.5,238z"/>
<path id="Shape" fill="#FFFFFF" d="M185.895,159.5L221,121.875h-21.712C196.529,82.826,164.002,52,124.25,52
	C82.688,52,49,85.689,49,127.25c0,41.561,33.688,75.25,75.25,75.25c18.041,0,34.59-6.361,47.551-16.945l-19.18-19.181
	c-7.973,5.792-17.758,9.251-28.371,9.251c-26.718,0-48.375-21.657-48.375-48.375s21.657-48.375,48.375-48.375
	c24.898,0,45.383,18.815,48.06,43h-21.185L185.895,159.5z"/>
</svg>
