<?xml version="1.0" encoding="utf-8"?>
<!-- Generator: Adobe Illustrator 16.0.0, SVG Export Plug-In . SVG Version: 6.00 Build 0)  -->
<!DOCTYPE svg PUBLIC "-//W3C//DTD SVG 1.1//EN" "http://www.w3.org/Graphics/SVG/1.1/DTD/svg11.dtd">
<svg version="1.1" id="Layer_1" xmlns="http://www.w3.org/2000/svg" xmlns:xlink="http://www.w3.org/1999/xlink" x="0px" y="0px"
	 width="60px" height="60px" viewBox="0 0 60 60" enable-background="new 0 0 60 60" xml:space="preserve">
<path id="Combined-Shape" fill="#FFFFFF" d="M30,60C13.432,60,0,46.568,0,30S13.432,0,30,0s30,13.432,30,30S46.568,60,30,60z
	 M30,58.5c15.74,0,28.5-12.76,28.5-28.5S45.74,1.5,30,1.5S1.5,14.26,1.5,30S14.26,58.5,30,58.5z"/>
<path id="Shape" fill="#FFFFFF" d="M43.175,27.661l-19.657-12.37c-0.581-0.345-1.303-0.288-1.848-0.288
	c-2.18,0-2.17,1.681-2.17,2.107v25.282c0,0.359-0.01,2.107,2.17,2.107c0.545,0,1.267,0.057,1.848-0.289l19.656-12.369
	c1.614-0.959,1.336-2.09,1.336-2.09S44.788,28.62,43.175,27.661z"/>
</svg>
