<?xml version="1.0" encoding="utf-8"?>
<!-- Generator: Adobe Illustrator 16.0.0, SVG Export Plug-In . SVG Version: 6.00 Build 0)  -->
<!DOCTYPE svg PUBLIC "-//W3C//DTD SVG 1.1//EN" "http://www.w3.org/Graphics/SVG/1.1/DTD/svg11.dtd">
<svg version="1.1" id="Layer_1" xmlns="http://www.w3.org/2000/svg" xmlns:xlink="http://www.w3.org/1999/xlink" x="0px" y="0px"
	 width="28px" height="23px" viewBox="0 0 28 23" enable-background="new 0 0 28 23" xml:space="preserve">
<path id="Shape" fill="#FFFFFF" d="M27.094,13.129l-11.398,9.644c-0.389,0.27-0.872,0.225-1.237,0.225
	c-1.46,0-1.454-1.31-1.454-1.643v-7.308L2.691,22.772c-0.389,0.27-0.873,0.225-1.238,0.225C-0.006,22.997,0,21.687,0,21.354V1.646
	c0-0.28-0.006-1.643,1.453-1.643c0.365,0,0.85-0.045,1.238,0.225l10.313,8.726V1.646c0-0.28-0.007-1.643,1.454-1.643
	c0.365,0,0.848-0.045,1.237,0.225L27.094,9.87c1.08,0.747,0.895,1.63,0.895,1.63S28.174,12.383,27.094,13.129z"/>
</svg>
